# Blender v2.76 (sub 0) OBJ File: 'model-1cm.blend'
# www.blender.org
v 15.999998 -25.699999 12.000000
v 15.999995 -25.699999 12.000000
v 15.999998 -25.699999 11.999996
v 15.999998 -13.699999 12.000000
v 15.999998 -19.099998 12.000000
v 15.999998 -19.099998 6.999998
v 15.999998 -20.299999 6.999998
v 15.999998 -20.299999 12.000000
v 15.999998 -22.599997 11.999996
v 15.999998 -22.599997 0.000008
v 15.999998 -22.599997 0.000000
v 15.999998 -16.799999 0.000000
v 15.999998 -16.799999 11.999996
v 15.999998 -13.699999 11.999996
v 4.076290 -20.299999 12.000000
v 4.076290 -22.343498 12.000000
v 15.999995 -22.599997 12.000000
v 4.000000 -25.699999 12.000000
v 4.000000 -22.343498 12.000000
v 15.999995 -13.699999 12.000000
v 15.999995 -16.799999 12.000000
v 4.076290 -17.043499 12.000000
v 4.076290 -17.043499 12.000000
v 4.076290 -19.099998 12.000000
v 4.000000 -17.043499 12.000000
v 4.000000 -13.699999 12.000000
v 4.076290 -19.099998 6.999998
v 4.076290 -19.099998 6.999998
v 4.076290 -20.299999 6.999998
v 2.121321 -22.343498 4.300000
v 4.000000 -22.343498 0.167802
v 4.076290 -22.343498 12.000000
v -3.823708 -22.343498 12.000000
v -2.121320 -22.343498 4.300000
v 0.000001 -22.343498 6.421321
v 4.000000 -22.343498 0.000000
v 4.000000 -17.043499 0.000000
v 4.000000 -17.043499 11.895593
v 4.000000 -13.699999 -0.000000
v 4.000000 -25.699999 -0.000000
v 15.999995 -25.699999 -0.000000
v 15.999995 -13.699999 -0.000000
v 0.000001 -17.043499 2.178679
v -3.823708 -17.043499 0.000000
v -3.823708 -17.043499 12.000000
v 4.076290 -17.043499 12.000000
v 0.000001 -17.043499 6.421321
v -2.121320 -17.043499 4.300000
v 4.076290 -19.099998 12.000000
v 4.000000 -20.299999 6.999998
v 4.000000 -19.099998 6.999998
v 4.000000 -20.299999 12.000000
v 2.121321 -17.043499 4.300000
v 0.000001 -22.343498 2.178679
v -3.823708 -22.343498 0.000000
v -3.823708 -20.299999 12.000000
v 4.076290 -20.299999 12.000000
v 4.076290 -22.343498 -0.000000
v 4.076290 -17.043499 -0.000000
v -3.823708 -20.299999 6.999998
v -3.823708 -19.099998 6.999998
v -3.823708 -19.099998 12.000000
v 15.999998 -25.699999 -0.000000
v 15.999998 -25.699999 11.999983
v 15.999998 -13.699999 -0.000000
v 27.999992 -16.799999 0.000000
v 27.999992 -22.599997 0.000000
v 27.999992 -25.699999 -0.000000
v 27.999992 -13.699999 -0.000000
v 22.131321 -22.599997 3.899999
v 20.009998 -22.599997 6.021320
v 17.888676 -22.599997 3.899999
v 17.888676 -25.699999 3.899999
v 20.009998 -25.699999 6.021320
v 22.131321 -25.699999 3.899999
v 20.009998 -22.599997 1.778678
v 20.009998 -25.699999 1.778678
vn 0.000000 -1.000000 0.000000
vn 1.000000 0.000000 0.000000
vn 0.000000 0.000000 1.000000
vn 0.000000 1.000000 0.000000
vn -1.000000 0.000000 0.000000
vn -0.707100 0.000000 -0.707100
vn 0.707100 0.000000 -0.707100
vn 0.000000 0.000000 -1.000000
vn 0.707100 0.000000 0.707100
vn -0.707100 0.000000 0.707100
s off
f 1//1 2//1 3//1
f 7//2 10//2 6//2
f 8//3 16//3 17//3
f 2//3 16//3 18//3
f 20//4 4//4 14//4
f 21//3 23//3 5//3
f 22//3 20//3 26//3
f 6//1 5//1 24//1
f 6//3 28//3 29//3
f 8//4 7//4 29//4
f 19//3 32//3 33//3
f 37//5 39//5 36//5
f 18//1 40//1 41//1
f 20//4 42//4 39//4
f 45//4 38//4 47//4
f 22//3 46//3 23//3
f 49//2 27//2 23//2
f 29//3 28//3 51//3
f 50//4 52//4 15//4
f 53//6 30//6 35//6
f 54//1 55//1 36//1
f 33//3 32//3 57//3
f 34//7 48//7 47//7
f 55//8 44//8 37//8
f 53//4 37//4 43//4
f 40//8 39//8 58//8
f 40//8 58//8 41//8
f 57//3 32//3 16//3
f 54//9 43//9 48//9
f 61//5 44//5 55//5
f 45//3 62//3 49//3
f 62//1 61//1 51//1
f 61//3 60//3 50//3
f 56//3 57//3 52//3
f 43//10 54//10 30//10
f 41//4 64//4 3//4
f 65//8 63//8 41//8
f 14//4 65//4 42//4
f 67//2 68//2 69//2
f 12//1 66//1 13//1
f 67//3 66//3 12//3
f 9//4 71//4 72//4
f 74//1 68//1 3//1
f 69//8 68//8 63//8
f 14//4 69//4 65//4
f 76//4 67//4 11//4
f 70//6 75//6 74//6
f 73//7 72//7 71//7
f 63//1 77//1 73//1
f 77//9 76//9 72//9
f 76//10 77//10 75//10
f 14//2 4//2 13//2
f 8//2 1//2 9//2
f 13//2 4//2 5//2
f 1//2 3//2 9//2
f 13//2 5//2 6//2
f 7//2 8//2 9//2
f 12//2 13//2 6//2
f 7//2 9//2 10//2
f 12//2 6//2 10//2
f 10//2 11//2 12//2
f 2//3 1//3 17//3
f 8//3 15//3 16//3
f 17//3 1//3 8//3
f 19//3 18//3 16//3
f 2//3 17//3 16//3
f 5//3 4//3 21//3
f 21//3 22//3 23//3
f 4//3 20//3 21//3
f 23//3 24//3 5//3
f 26//3 25//3 22//3
f 22//3 21//3 20//3
f 27//1 6//1 24//1
f 29//3 7//3 6//3
f 6//3 27//3 28//3
f 15//4 8//4 29//4
f 30//1 31//1 19//1
f 33//1 34//1 35//1
f 35//1 30//1 19//1
f 19//3 16//3 32//3
f 33//1 35//1 19//1
f 40//5 18//5 31//5
f 19//5 31//5 18//5
f 38//5 25//5 26//5
f 40//5 31//5 36//5
f 37//5 38//5 39//5
f 40//5 36//5 39//5
f 38//5 26//5 39//5
f 2//1 18//1 41//1
f 26//4 20//4 39//4
f 48//4 43//4 44//4
f 46//3 22//3 25//3
f 48//4 44//4 45//4
f 45//3 46//3 25//3
f 25//4 38//4 45//4
f 47//4 48//4 45//4
f 23//3 46//3 49//3
f 49//3 28//3 27//3
f 27//5 24//5 23//5
f 50//3 29//3 51//3
f 29//4 50//4 15//4
f 47//6 53//6 35//6
f 36//1 31//1 54//1
f 34//1 33//1 55//1
f 31//1 30//1 54//1
f 54//1 34//1 55//1
f 56//3 33//3 57//3
f 35//7 34//7 47//7
f 36//8 55//8 37//8
f 53//4 47//4 38//4
f 37//4 44//4 43//4
f 53//4 38//4 37//4
f 59//3 40//3 58//3
f 42//8 41//8 58//8
f 58//8 39//8 42//8
f 15//3 57//3 16//3
f 34//9 54//9 48//9
f 55//5 33//5 60//5
f 61//5 62//5 45//5
f 33//5 56//5 60//5
f 61//5 45//5 44//5
f 55//5 60//5 61//5
f 46//3 45//3 49//3
f 51//1 28//1 49//1
f 49//1 62//1 51//1
f 51//3 61//3 50//3
f 50//4 60//4 56//4
f 57//3 15//3 52//3
f 52//4 50//4 56//4
f 53//10 43//10 30//10
f 3//1 2//1 41//1
f 41//1 63//1 64//1
f 42//8 65//8 41//8
f 20//4 14//4 42//4
f 14//9 13//9 66//9
f 67//9 9//9 3//9
f 69//9 14//9 66//9
f 67//9 3//9 68//9
f 69//2 66//2 67//2
f 11//3 67//3 12//3
f 9//4 67//4 71//4
f 72//4 10//4 9//4
f 67//4 70//4 71//4
f 3//1 64//1 74//1
f 74//1 75//1 68//1
f 64//1 73//1 74//1
f 65//8 69//8 63//8
f 11//4 10//4 76//4
f 76//4 70//4 67//4
f 10//4 72//4 76//4
f 71//6 70//6 74//6
f 74//7 73//7 71//7
f 68//1 75//1 77//1
f 73//1 64//1 63//1
f 63//1 68//1 77//1
f 73//9 77//9 72//9
f 70//10 76//10 75//10
