# Blender v2.76 (sub 0) OBJ File: 'model-single-new.blend'
# www.blender.org
v 21.999998 27.099995 12.000000
v 21.999992 27.099995 12.000000
v 21.999998 27.099995 11.999992
v 21.999998 39.099995 12.000000
v 21.999998 33.699997 12.000000
v 21.999998 33.699997 6.999998
v 21.999998 32.499996 6.999998
v 21.999998 32.499996 12.000000
v 21.999998 30.199993 11.999994
v 21.999998 30.199993 0.000011
v 21.999998 30.199993 -0.000000
v 21.999998 35.999992 -0.000000
v 21.999998 35.999992 11.999994
v 21.999998 39.099995 11.999994
v 21.999992 30.199993 12.000000
v 33.999992 35.999992 0.000003
v 33.999992 30.487499 0.000003
v 33.999992 30.199993 0.000003
v 21.999992 27.099993 12.000000
v 33.999992 27.099993 -0.000000
v 33.999992 39.099995 -0.000000
v 21.999992 39.099995 12.000000
v 21.999992 35.999992 12.000000
v 10.000000 33.699997 12.000000
v 10.000000 33.699997 6.999998
v 10.000000 32.499996 6.999998
v 10.000000 32.499996 12.000000
v 28.131323 30.199993 3.899999
v 26.009998 30.199993 6.021320
v 23.888676 30.199993 3.899999
v 26.009998 30.199993 1.778678
v 33.999992 30.199993 -0.000000
v 21.999992 27.099995 -0.000000
v 10.000000 27.099995 -0.000000
v 10.000000 39.099995 -0.000000
v 21.999992 39.099995 -0.000000
v 21.999992 35.999992 -0.000000
v 21.999992 30.199993 -0.000000
v 33.999992 35.999992 -0.000000
v 10.000000 27.099995 12.000000
v 33.999992 30.487499 -0.000000
v 21.999992 27.099993 -0.000000
v 23.888676 27.099993 3.899999
v 26.009998 27.099993 6.021320
v 28.131323 27.099993 3.899999
v 21.999998 27.099995 -0.000000
v 21.999998 39.099995 -0.000000
v 10.000000 39.099995 12.000000
v 26.009998 27.099993 1.778678
v 10.000000 27.099995 12.000000
v -11.999999 27.099995 12.000000
v -11.999999 27.099995 11.998678
v -11.998679 27.099995 11.999998
v -11.998679 27.099995 0.000003
v -11.998679 27.099995 0.000003
v -11.999999 27.099995 0.000003
v -11.999999 27.099995 0.000000
v 10.000000 27.099995 0.000000
v 10.000000 39.099995 12.000000
v 10.000000 33.699997 12.000000
v 10.000000 33.699997 6.999998
v 10.000000 32.499996 6.999998
v 10.000000 32.499996 12.000000
v 10.000000 39.099995 0.000000
v -11.999999 32.499996 12.000000
v -11.999999 32.499992 12.000000
v -11.999997 32.499992 12.000000
v -11.999997 30.399992 12.000000
v -11.999999 30.399992 12.000000
v -11.999999 30.399992 11.998676
v -11.999999 30.399992 11.998676
v -23.989056 27.099993 0.000003
v -11.998679 27.099993 11.999998
v -23.899998 30.399992 0.089126
v -23.899998 35.799995 0.089126
v -11.999999 35.799995 11.998676
v -11.999999 39.099995 11.998677
v -23.989056 39.099995 0.000003
v -11.998679 27.099993 0.000003
v -23.899998 35.799995 0.000003
v -23.899998 30.399992 0.000003
v -11.999999 30.399992 0.000003
v -11.999999 30.399992 0.000000
v -11.999997 30.399992 0.000000
v -11.999997 35.799995 0.000000
v -11.999999 35.799995 0.000000
v -11.999999 39.099995 0.000000
v -11.999999 39.099995 12.000000
v -11.999999 39.099995 0.000003
v -11.998679 39.099995 0.000003
v -11.998679 39.099995 11.999998
v -11.999999 35.799995 12.000000
v -11.999997 35.799995 12.000000
v -11.999997 33.699997 12.000000
v -11.999997 33.699997 11.998678
v -11.998679 33.699997 11.999998
v -11.998679 33.699997 6.999999
v -11.998679 33.699997 6.999998
v -11.998679 32.499996 6.999998
v -11.998679 32.499996 6.999999
v -11.998679 32.499996 11.999998
v -11.999999 32.499996 11.998677
v -11.999999 32.499992 11.998676
v -23.899998 30.399992 12.000000
v -22.221313 30.399992 7.999999
v -20.099995 30.399992 10.121319
v -17.978676 30.399992 7.999999
v -20.099995 30.399992 5.878679
v -23.899998 35.799995 12.000000
v -20.099995 35.799995 5.878679
v -17.978676 35.799995 7.999999
v -20.099995 35.799995 10.121319
v -11.999999 35.799995 11.998677
v -11.999999 35.799995 0.000003
v -23.899998 35.799995 0.000000
v -23.899998 30.399992 0.000000
v -11.999997 30.399992 0.000000
v -11.999997 35.799995 0.000000
v -11.999999 33.699997 12.000000
v -11.999999 33.699997 11.998676
v -11.999999 33.699997 6.999999
v -11.999997 33.699997 6.999999
v -11.999999 32.499996 6.999999
v -16.994667 32.499992 6.999999
v -17.000004 32.499992 6.999999
v -17.000004 32.499992 12.000000
v -16.994667 32.499996 6.999999
v -16.994667 33.699997 6.999999
v -16.994667 33.699997 6.999999
v -17.000004 33.699997 12.000000
v -22.221313 35.799995 7.999999
v -17.000004 33.699997 6.999999
vn 0.000000 -1.000000 0.000000
vn 1.000000 0.000000 0.000000
vn 0.000000 0.000000 1.000000
vn 0.000000 1.000000 0.000000
vn 0.000000 0.000000 -1.000000
vn -1.000000 0.000000 0.000000
vn -0.707100 0.000000 -0.707100
vn 0.707100 0.000000 -0.707100
vn 0.707100 0.000000 0.707100
vn -0.707100 0.000000 0.707100
vn -0.707400 0.000000 0.706800
vn 0.707400 0.000000 -0.706800
vn 0.000000 -0.994100 -0.108200
vn -0.351100 0.000000 0.936300
vn -0.000500 0.356600 0.934200
vn 0.000000 0.000100 1.000000
vn 0.000000 -0.197200 -0.980400
vn -0.487900 -0.390400 0.780800
s off
f 1//1 2//1 3//1
f 7//2 10//2 6//2
f 1//3 8//3 15//3
f 17//2 18//2 20//2
f 22//4 4//4 14//4
f 4//3 22//3 23//3
f 5//1 24//1 25//1
f 6//3 25//3 26//3
f 27//4 8//4 7//4
f 9//4 29//4 30//4
f 31//4 32//4 11//4
f 34//5 37//5 38//5
f 12//1 39//1 16//1
f 15//3 27//3 40//3
f 16//6 39//6 41//6
f 17//6 41//6 32//6
f 42//6 19//6 2//6
f 19//1 44//1 20//1
f 46//3 41//3 39//3
f 14//4 21//4 47//4
f 14//4 47//4 36//4
f 23//3 48//3 24//3
f 25//6 35//6 34//6
f 28//7 45//7 44//7
f 43//8 30//8 29//8
f 49//9 31//9 30//9
f 31//10 49//10 45//10
f 33//5 38//5 11//5
f 40//1 34//1 33//1
f 22//4 36//4 35//4
f 47//5 12//5 37//5
f 42//1 20//1 49//1
f 53//1 54//1 58//1
f 62//2 58//2 64//2
f 68//3 50//3 63//3
f 69//6 71//6 52//6
f 72//11 74//11 75//11
f 73//2 79//2 54//2
f 79//3 55//3 54//3
f 72//5 81//5 56//5
f 57//6 56//6 82//6
f 84//5 85//5 64//5
f 59//4 90//4 91//4
f 88//3 93//3 59//3
f 60//1 96//1 97//1
f 62//3 61//3 98//3
f 63//4 100//4 101//4
f 66//6 65//6 102//6
f 69//3 68//3 67//3
f 104//1 106//1 69//1
f 108//1 74//1 107//1
f 79//1 73//1 72//1
f 109//6 75//6 74//6
f 75//4 111//4 76//4
f 88//1 76//1 113//1
f 89//4 78//4 77//4
f 80//5 78//5 89//5
f 115//6 116//6 81//6
f 116//5 117//5 83//5
f 115//4 114//4 86//4
f 87//6 86//6 114//6
f 77//4 91//4 90//4
f 119//3 94//3 93//3
f 120//1 122//1 95//1
f 100//3 99//3 98//3
f 100//4 123//4 102//4
f 124//4 126//4 103//4
f 127//12 129//12 103//12
f 104//3 126//3 109//3
f 105//8 131//8 112//8
f 111//7 107//7 106//7
f 110//10 108//10 107//10
f 108//9 110//9 131//9
f 112//4 131//4 109//4
f 116//5 115//5 118//5
f 117//3 118//3 85//3
f 132//1 128//1 130//1
f 120//1 128//1 121//1
f 97//3 121//3 123//3
f 123//4 127//4 102//4
f 132//3 125//3 124//3
f 126//2 125//2 132//2
f 14//2 4//2 13//2
f 8//2 1//2 9//2
f 13//2 4//2 5//2
f 1//2 3//2 9//2
f 13//2 5//2 6//2
f 7//2 8//2 9//2
f 12//2 13//2 6//2
f 7//2 9//2 10//2
f 12//2 6//2 10//2
f 10//2 11//2 12//2
f 2//3 1//3 15//3
f 14//9 13//9 16//9
f 16//2 17//2 20//2
f 18//9 9//9 3//9
f 3//2 2//2 19//2
f 21//9 14//9 16//9
f 3//2 19//2 20//2
f 20//2 21//2 16//2
f 18//9 3//9 20//9
f 5//3 4//3 23//3
f 6//1 5//1 25//1
f 7//3 6//3 26//3
f 26//4 27//4 7//4
f 9//4 18//4 29//4
f 30//4 10//4 9//4
f 18//4 28//4 29//4
f 11//4 10//4 31//4
f 31//4 28//4 18//4
f 10//4 30//4 31//4
f 18//4 32//4 31//4
f 38//5 33//5 34//5
f 34//5 35//5 37//5
f 37//5 12//5 11//5
f 35//5 36//5 37//5
f 37//5 11//5 38//5
f 13//1 12//1 16//1
f 40//3 2//3 15//3
f 15//3 8//3 27//3
f 17//6 16//6 41//6
f 18//6 17//6 32//6
f 33//6 42//6 2//6
f 19//1 43//1 44//1
f 45//1 20//1 44//1
f 20//5 42//5 33//5
f 12//5 47//5 21//5
f 20//3 33//3 46//3
f 39//5 12//5 21//5
f 21//5 20//5 46//5
f 46//5 11//5 32//5
f 32//3 41//3 46//3
f 39//3 21//3 46//3
f 22//4 14//4 36//4
f 24//3 5//3 23//3
f 23//3 22//3 48//3
f 34//6 40//6 26//6
f 25//6 24//6 48//6
f 40//6 27//6 26//6
f 25//6 48//6 35//6
f 34//6 26//6 25//6
f 29//7 28//7 44//7
f 44//8 43//8 29//8
f 43//9 49//9 30//9
f 28//10 31//10 45//10
f 46//5 33//5 11//5
f 2//1 40//1 33//1
f 48//4 22//4 35//4
f 36//5 47//5 37//5
f 43//1 19//1 42//1
f 20//1 45//1 49//1
f 49//1 43//1 42//1
f 51//1 52//1 53//1
f 56//1 57//1 58//1
f 50//13 51//13 53//13
f 54//3 55//3 56//3
f 58//1 50//1 53//1
f 54//1 56//1 58//1
f 64//2 59//2 61//2
f 62//2 63//2 50//2
f 59//2 60//2 61//2
f 62//2 50//2 58//2
f 64//2 61//2 62//2
f 63//3 65//3 66//3
f 68//3 69//3 51//3
f 63//3 66//3 67//3
f 68//3 51//3 50//3
f 63//3 67//3 68//3
f 52//6 51//6 69//6
f 69//3 70//3 71//3
f 72//14 73//14 53//14
f 76//11 77//11 75//11
f 72//15 53//15 52//15
f 75//11 77//11 78//11
f 72//11 52//11 74//11
f 75//11 78//11 72//11
f 52//11 71//11 74//11
f 53//2 73//2 54//2
f 55//5 79//5 72//5
f 72//5 78//5 80//5
f 81//5 82//5 56//5
f 72//5 80//5 81//5
f 56//3 55//3 72//3
f 83//6 57//6 82//6
f 64//5 58//5 84//5
f 57//5 83//5 84//5
f 85//5 86//5 87//5
f 58//5 57//5 84//5
f 85//5 87//5 64//5
f 64//4 87//4 89//4
f 91//4 77//4 88//4
f 64//16 89//16 90//16
f 91//4 88//4 59//4
f 59//4 64//4 90//4
f 60//3 59//3 93//3
f 88//3 92//3 93//3
f 93//3 94//3 60//3
f 98//1 61//1 60//1
f 94//1 95//1 96//1
f 97//1 98//1 60//1
f 60//17 94//17 96//17
f 99//3 62//3 98//3
f 63//4 62//4 99//4
f 101//4 102//4 65//4
f 63//4 99//4 100//4
f 101//4 65//4 63//4
f 103//6 66//6 102//6
f 66//3 69//3 67//3
f 70//1 69//1 106//1
f 104//1 74//1 105//1
f 106//1 107//1 70//1
f 104//1 105//1 106//1
f 71//3 70//3 107//3
f 108//1 105//1 74//1
f 71//1 107//1 74//1
f 104//6 109//6 74//6
f 113//4 76//4 111//4
f 75//4 110//4 111//4
f 111//4 112//4 113//4
f 113//6 92//6 88//6
f 88//6 77//6 76//6
f 114//5 80//5 89//5
f 80//6 115//6 81//6
f 82//1 81//1 116//1
f 117//3 84//3 83//3
f 83//1 82//1 116//1
f 86//3 85//3 118//3
f 115//4 80//4 114//4
f 86//3 118//3 115//3
f 89//6 87//6 114//6
f 89//4 77//4 90//4
f 92//3 119//3 93//3
f 94//3 119//3 120//3
f 120//1 121//1 122//1
f 122//1 97//1 95//1
f 95//1 94//1 120//1
f 97//1 96//1 95//1
f 97//3 100//3 98//3
f 101//4 100//4 102//4
f 66//4 103//4 126//4
f 124//4 125//4 126//4
f 103//18 102//18 127//18
f 127//3 128//3 129//3
f 129//11 124//11 103//11
f 119//3 92//3 130//3
f 104//3 69//3 126//3
f 130//3 92//3 109//3
f 69//3 66//3 126//3
f 130//3 109//3 126//3
f 106//8 105//8 112//8
f 112//7 111//7 106//7
f 111//10 110//10 107//10
f 105//9 108//9 131//9
f 92//4 113//4 112//4
f 131//4 110//4 75//4
f 109//4 92//4 112//4
f 131//4 75//4 109//4
f 117//5 116//5 118//5
f 84//3 117//3 85//3
f 120//1 119//1 130//1
f 132//3 129//3 128//3
f 120//1 130//1 128//1
f 123//3 100//3 97//3
f 97//5 122//5 121//5
f 121//3 128//3 127//3
f 127//3 123//3 121//3
f 129//3 132//3 124//3
f 130//2 126//2 132//2
