# Blender v2.76 (sub 0) OBJ File: 'smaller.blend'
# www.blender.org
v -41.899998 -58.199997 12.000000
v -41.899998 -58.199997 11.999998
v -41.899998 -58.199997 0.000003
v -41.899998 -58.199997 0.000000
v -19.900002 -58.199997 0.000000
v -24.299999 -58.199997 1.400001
v -27.299999 -58.199997 1.400001
v -27.299999 -58.199997 4.400001
v -19.900002 -58.199997 12.000000
v -24.299999 -58.199997 4.400001
v -41.899998 -52.800003 12.000000
v -41.899998 -52.800003 11.999998
v -41.899998 -46.200005 0.000003
v -41.899998 -46.200005 0.000000
v -19.900002 -46.200005 0.000000
v -24.299999 -54.200001 1.400001
v -27.299999 -54.200001 1.400001
v -27.299999 -54.200001 3.984745
v -27.299999 -54.210186 3.994934
v -27.299999 -54.215256 3.999999
v -27.299999 -53.815254 4.400001
v -19.900002 -54.200001 0.000001
v -19.900002 -54.200001 3.984745
v -19.900002 -54.200775 3.985518
v -19.900002 -54.215256 3.999999
v -19.900002 -52.199997 6.015254
v -19.900002 -52.800003 6.999998
v -19.900002 -52.800003 12.000000
v -24.299999 -53.815254 4.400001
v -24.299999 -54.215256 3.999999
v -24.299999 -54.206371 3.991117
v -24.299999 -54.200001 3.984745
v -41.899998 -52.800003 6.999998
v -41.899998 -52.800003 6.999999
v -41.899998 -46.200005 12.000000
v -19.900002 -46.200005 12.000000
v -41.899998 -46.200005 11.999998
v -19.900002 -51.599998 12.000000
v -19.900002 -51.599998 6.999998
v -19.900002 -50.184742 3.999999
v -19.900002 -50.199226 3.985518
v -19.900002 -50.199997 3.984745
v -19.900002 -50.199997 0.000001
v -31.291891 -54.200001 0.000001
v -31.291891 -54.200001 4.000000
v -31.281889 -54.200001 4.000000
v -31.281889 -54.200001 3.984745
v -31.281889 -54.215256 3.999999
v -31.281889 -52.199997 6.015254
v -41.899998 -51.599998 6.999998
v -41.899998 -51.599998 11.999998
v -41.899998 -51.599998 12.000000
v -31.291891 -50.199997 0.000001
v -41.899998 -51.599998 6.999999
v -31.281889 -50.184742 3.999999
v -27.299999 -50.184742 3.999999
v -27.299999 -50.584743 4.400001
v -24.299999 -50.584743 4.400001
v -24.299999 -50.184742 3.999999
v -24.299999 -50.193626 3.991117
v -24.299999 -50.199997 3.984745
v -24.299999 -50.199997 1.400001
v -27.299999 -50.199997 1.400001
v -27.299999 -50.199997 3.984745
v -31.281889 -50.199997 3.984745
v -31.281889 -50.199997 4.000000
v -31.291891 -50.199997 4.000000
v -27.299999 -50.189812 3.994934
v -27.299999 -49.131779 1.400001
v -27.299999 -49.131779 4.400001
v -24.299999 -49.131779 4.400001
v -24.299999 -49.131779 1.400001
v -53.890373 -58.199997 0.000003
v -53.890373 -46.200005 0.000003
v -53.809998 -49.500000 0.000003
v -53.809998 -54.899998 0.000003
v -41.909992 -54.899998 0.000003
v -41.909992 -52.800003 11.989994
v -41.909992 -54.899998 11.989994
v -53.809998 -54.899998 0.080440
v -53.809998 -49.500000 0.080439
v -41.909992 -49.500000 11.989994
v -41.909992 -51.599998 11.989994
v -41.909992 -49.500000 0.000003
v -53.809998 -49.500000 -0.000001
v -53.809998 -54.899998 -0.000001
v -41.909992 -54.899998 -0.000001
v -41.909992 -52.800003 6.999999
v -41.909992 -52.800003 6.999999
v -41.909992 -52.800003 12.000000
v -41.909992 -54.899998 12.000000
v -49.999996 -54.899998 10.121320
v -47.878677 -54.899998 8.000000
v -49.999996 -54.899998 5.878679
v -53.809998 -54.899998 12.000000
v -53.809998 -49.500000 12.000000
v -49.999996 -49.500000 5.878679
v -47.878677 -49.500000 8.000000
v -49.999996 -49.500000 10.121320
v -41.909992 -49.500000 12.000000
v -41.909992 -51.599998 12.000000
v -41.909992 -51.599998 6.999999
v -41.909992 -49.500000 -0.000001
v -46.895988 -51.599998 6.999999
v -46.895988 -52.800003 6.999999
v -46.900002 -52.800003 12.000000
v -46.895988 -52.800003 6.999999
v -46.900002 -52.800003 6.999999
v -46.900002 -51.599998 12.000000
v -52.121315 -54.899998 8.000000
v -52.121315 -49.500000 8.000000
v -46.900002 -51.599998 6.999999
v -46.895988 -51.599998 6.999999
vn 0.000000 -1.000000 0.000000
vn 0.000000 0.000000 1.000000
vn -1.000000 0.000000 0.000000
vn 0.000000 0.000000 -1.000000
vn 1.000000 -0.000200 0.000000
vn 1.000000 0.000000 0.000000
vn 0.000000 1.000000 0.000000
vn -0.000000 0.707000 0.707200
vn 0.000000 0.707100 -0.707100
vn 0.000000 0.707100 0.707100
vn 0.000000 0.708700 0.705500
vn 0.000000 -0.707100 -0.707100
vn 0.000000 -0.706700 0.707500
vn 0.000000 -0.706500 0.707700
vn 0.000000 -0.708700 0.705500
vn -0.000000 -0.707200 0.707000
vn -0.707400 0.000000 0.706800
vn -0.707100 0.000000 -0.707100
vn -0.707100 0.000000 0.707100
vn 0.707100 0.000000 0.707100
vn 0.707100 0.000000 -0.707100
vn 1.000000 -0.004900 0.000000
vn 1.000000 -0.000100 0.000000
vn 1.000000 0.005000 0.000000
vn 1.000000 0.000100 0.000000
vn 0.000000 0.707200 0.707000
vn 0.000000 0.707300 0.706900
vn 0.000000 0.706600 0.707600
vn 0.000000 -0.707100 0.707100
vn 1.000000 0.000200 0.000000
vn 1.000000 0.000600 0.000000
vn -1.000000 -0.000500 0.000000
vn -0.000000 -0.707400 0.706800
vn -0.707500 0.000000 0.706700
s off
f 2//1 4//1 8//1
f 9//1 10//1 5//1
f 11//2 12//2 2//2
f 14//3 4//3 3//3
f 4//4 14//4 15//4
f 6//2 16//2 17//2
f 17//5 19//5 20//5
f 25//6 9//6 5//6
f 1//2 9//2 28//2
f 29//4 10//4 8//4
f 30//3 16//3 6//3
f 12//7 28//7 27//7
f 36//7 13//7 37//7
f 36//6 39//6 40//6
f 44//7 47//7 17//7
f 47//8 48//8 19//8
f 19//8 48//8 20//8
f 29//9 21//9 49//9
f 25//10 24//10 31//10
f 24//11 23//11 32//11
f 39//2 50//2 33//2
f 52//3 35//3 37//3
f 35//2 52//2 38//2
f 43//2 53//2 44//2
f 38//1 51//1 54//1
f 49//12 57//12 58//12
f 40//13 59//13 60//13
f 63//1 65//1 53//1
f 44//6 53//6 67//6
f 46//4 45//4 67//4
f 49//6 46//6 66//6
f 56//14 55//14 68//14
f 68//6 64//6 70//6
f 58//4 57//4 70//4
f 71//3 60//3 59//3
f 61//15 42//15 41//15
f 62//2 72//2 69//2
f 68//16 55//16 65//16
f 69//1 72//1 71//1
f 3//1 2//1 73//1
f 74//4 75//4 76//4
f 80//17 81//17 73//17
f 75//4 74//4 13//4
f 85//3 86//3 76//3
f 86//1 87//1 77//1
f 78//7 12//7 34//7
f 90//6 79//6 78//6
f 79//1 93//1 80//1
f 96//3 81//3 80//3
f 99//7 100//7 82//7
f 101//6 83//6 82//6
f 54//1 51//1 83//1
f 74//7 37//7 13//7
f 87//6 103//6 84//6
f 103//7 85//7 75//7
f 86//4 85//4 103//4
f 102//2 104//2 89//2
f 90//7 89//7 107//7
f 95//2 106//2 109//2
f 95//1 110//1 92//1
f 98//18 93//18 92//18
f 97//19 94//19 93//19
f 81//7 96//7 111//7
f 112//1 104//1 109//1
f 83//1 104//1 102//1
f 34//2 33//2 50//2
f 106//6 108//6 112//6
f 107//2 105//2 104//2
f 112//2 108//2 107//2
f 94//20 97//20 111//20
f 110//21 111//21 99//21
f 8//1 1//1 2//1
f 2//7 3//7 4//7
f 4//1 5//1 7//1
f 7//1 8//1 4//1
f 5//1 6//1 7//1
f 9//1 1//1 8//1
f 6//1 5//1 10//1
f 9//1 8//1 10//1
f 1//3 11//3 2//3
f 13//3 14//3 3//3
f 5//4 4//4 15//4
f 7//2 6//2 17//2
f 21//6 8//6 20//6
f 7//6 17//6 20//6
f 18//6 19//6 17//6
f 20//6 8//6 7//6
f 5//6 22//6 24//6
f 23//22 24//22 22//22
f 25//6 26//6 27//6
f 27//6 28//6 9//6
f 5//23 24//23 25//23
f 27//6 9//6 25//6
f 11//2 1//2 28//2
f 21//4 29//4 8//4
f 10//3 29//3 30//3
f 30//3 31//3 16//3
f 32//3 16//3 31//3
f 6//3 10//3 30//3
f 27//7 33//7 34//7
f 12//7 11//7 28//7
f 27//7 34//7 12//7
f 37//7 35//7 36//7
f 36//7 15//7 14//7
f 14//7 13//7 36//7
f 43//6 22//6 15//6
f 15//6 36//6 40//6
f 22//6 5//6 15//6
f 41//24 42//24 43//24
f 27//6 26//6 39//6
f 40//25 41//25 15//25
f 36//6 38//6 39//6
f 41//6 43//6 15//6
f 39//6 26//6 40//6
f 32//7 23//7 16//7
f 44//7 45//7 47//7
f 16//7 23//7 22//7
f 45//7 46//7 47//7
f 16//7 22//7 44//7
f 47//7 18//7 17//7
f 17//7 16//7 44//7
f 18//26 47//26 19//26
f 49//9 26//9 29//9
f 25//9 30//9 29//9
f 21//9 20//9 48//9
f 26//9 25//9 29//9
f 21//9 48//9 49//9
f 30//27 25//27 31//27
f 31//28 24//28 32//28
f 27//2 39//2 33//2
f 51//2 52//2 37//2
f 36//2 35//2 38//2
f 22//2 43//2 44//2
f 50//1 39//1 38//1
f 38//1 52//1 51//1
f 54//1 50//1 38//1
f 59//12 40//12 58//12
f 26//12 49//12 58//12
f 55//12 56//12 57//12
f 58//12 40//12 26//12
f 49//12 55//12 57//12
f 41//29 40//29 60//29
f 43//1 42//1 62//1
f 66//1 67//1 65//1
f 42//1 61//1 62//1
f 65//1 67//1 53//1
f 53//1 43//1 62//1
f 63//1 64//1 65//1
f 53//1 62//1 63//1
f 45//6 44//6 67//6
f 66//4 46//4 67//4
f 48//6 47//6 46//6
f 66//6 65//6 55//6
f 49//30 48//30 46//30
f 66//5 55//5 49//5
f 70//6 57//6 56//6
f 56//31 68//31 70//31
f 64//6 63//6 69//6
f 69//6 70//6 64//6
f 71//4 58//4 70//4
f 71//3 72//3 61//3
f 59//3 58//3 71//3
f 61//32 60//32 71//32
f 72//3 62//3 61//3
f 60//33 61//33 41//33
f 63//2 62//2 69//2
f 64//16 68//16 65//16
f 70//1 69//1 71//1
f 77//4 3//4 76//4
f 73//4 74//4 76//4
f 76//4 3//4 73//4
f 2//34 12//34 79//34
f 83//34 51//34 82//34
f 12//34 78//34 79//34
f 82//34 51//34 37//34
f 73//17 2//17 80//17
f 82//17 37//17 81//17
f 2//17 79//17 80//17
f 81//17 37//17 74//17
f 74//17 73//17 81//17
f 13//4 3//4 77//4
f 84//4 75//4 13//4
f 13//4 77//4 84//4
f 75//3 85//3 76//3
f 76//1 86//1 77//1
f 88//7 78//7 34//7
f 88//2 89//2 90//2
f 90//6 91//6 79//6
f 78//7 88//7 90//7
f 79//1 92//1 93//1
f 94//1 80//1 93//1
f 95//3 96//3 80//3
f 82//7 81//7 98//7
f 99//7 96//7 100//7
f 81//7 97//7 98//7
f 98//7 99//7 82//7
f 100//6 101//6 82//6
f 102//1 54//1 83//1
f 77//6 87//6 84//6
f 84//7 103//7 75//7
f 87//4 86//4 103//4
f 34//2 54//2 102//2
f 89//2 88//2 34//2
f 104//2 105//2 89//2
f 34//2 102//2 89//2
f 108//7 106//7 107//7
f 89//2 105//2 107//2
f 107//7 106//7 90//7
f 101//2 100//2 109//2
f 95//2 91//2 106//2
f 109//2 100//2 96//2
f 91//2 90//2 106//2
f 109//2 96//2 95//2
f 92//1 79//1 91//1
f 80//1 94//1 110//1
f 92//1 91//1 95//1
f 95//1 80//1 110//1
f 99//18 98//18 92//18
f 98//19 97//19 93//19
f 96//7 99//7 111//7
f 111//7 97//7 81//7
f 101//1 109//1 83//1
f 112//2 113//2 104//2
f 104//1 83//1 109//1
f 54//6 34//6 50//6
f 109//6 106//6 112//6
f 113//2 107//2 104//2
f 113//2 112//2 107//2
f 110//20 94//20 111//20
f 92//21 110//21 99//21
