# Blender v2.76 (sub 0) OBJ File: 'smaller.blend'
# www.blender.org
v -29.900000 -36.239998 12.000000 
v -29.900000 -36.239998 11.999998 
v -29.900000 -36.239998 0.000003 
v -29.900000 -36.239998 0.000000 
v -19.900002 -36.239998 0.000000 
v -24.299999 -36.239998 1.400001 
v -27.299999 -36.239998 1.400001 
v -27.299999 -36.239998 4.400001 
v -19.900002 -36.239998 12.000000 
v -24.299999 -36.239998 4.400001 
v -29.900000 -30.839999 12.000000 
v -29.900000 -30.839999 11.999998 
v -29.900000 -24.240003 0.000003 
v -29.900000 -24.240003 0.000000 
v -19.900002 -24.240003 0.000000 
v -24.299999 -32.240002 1.400001 
v -27.299999 -32.240002 1.400001 
v -27.299999 -32.240002 3.984745 
v -27.299999 -32.250187 3.994934 
v -27.299999 -32.255252 3.999999 
v -27.299999 -31.855255 4.400001 
v -19.900002 -32.240002 0.000001 
v -19.900002 -32.240002 3.984745 
v -19.900002 -32.240776 3.985518 
v -19.900002 -32.255252 3.999999 
v -19.900002 -30.239998 6.015254 
v -19.900002 -30.839999 6.999998 
v -19.900002 -30.839999 12.000000 
v -24.299999 -31.855255 4.400001 
v -24.299999 -32.255252 3.999999 
v -24.299999 -32.246372 3.991117 
v -24.299999 -32.240002 3.984745 
v -29.900000 -30.839999 6.999998 
v -29.900000 -30.839999 6.999999 
v -29.900000 -24.240003 12.000000 
v -19.900002 -24.240003 12.000000 
v -29.900000 -24.240003 11.999998 
v -19.900002 -29.639999 12.000000 
v -19.900002 -29.639999 6.999998 
v -19.900002 -28.224743 3.999999 
v -19.900002 -28.239227 3.985518 
v -19.900002 -28.240001 3.984745 
v -19.900002 -28.240001 0.000001 
v -31.291891 -32.240002 0.000001 
v -31.291891 -32.240002 4.000000 
v -31.281889 -32.240002 4.000000 
v -31.281889 -32.240002 3.984745 
v -31.281889 -32.255252 3.999999 
v -31.281889 -30.239998 6.015254 
v -29.900000 -29.639999 6.999998 
v -29.900000 -29.639999 11.999998 
v -29.900000 -29.639999 12.000000 
v -31.291891 -28.240001 0.000001 
v -29.900000 -29.639999 6.999999 
v -31.281889 -28.224743 3.999999 
v -27.299999 -28.224743 3.999999 
v -27.299999 -28.624744 4.400001 
v -24.299999 -28.624744 4.400001 
v -24.299999 -28.224743 3.999999 
v -24.299999 -28.233627 3.991117 
v -24.299999 -28.240001 3.984745 
v -24.299999 -28.240001 1.400001 
v -27.299999 -28.240001 1.400001 
v -27.299999 -28.240001 3.984745 
v -31.281889 -28.240001 3.984745 
v -31.281889 -28.240001 4.000000 
v -31.291891 -28.240001 4.000000 
v -27.299999 -28.229812 3.994934 
v -27.299999 -27.171779 1.400001 
v -27.299999 -27.171779 4.400001 
v -24.299999 -27.171779 4.400001 
v -24.299999 -27.171779 1.400001 
v -41.890373 -36.239998 0.000003 
v -41.890373 -24.240003 0.000003 
v -41.809998 -27.540004 0.000003 
v -41.809998 -32.939998 0.000003 
v -29.909994 -32.939998 0.000003 
v -29.909994 -30.839999 11.989994 
v -29.909994 -32.939998 11.989994 
v -41.809998 -32.939998 0.080440 
v -41.809998 -27.540004 0.080439 
v -29.909994 -27.540004 11.989994 
v -29.909994 -29.639999 11.989994 
v -29.909994 -27.540004 0.000003 
v -41.809998 -27.540004 -0.000001 
v -41.809998 -32.939998 -0.000001 
v -29.909994 -32.939998 -0.000001 
v -29.909994 -30.839999 6.999999 
v -29.909994 -30.839999 6.999999 
v -29.909994 -30.839999 12.000000 
v -29.909994 -32.939998 12.000000 
v -37.999996 -32.939998 10.121320 
v -35.878677 -32.939998 8.000000 
v -37.999996 -32.939998 5.878679 
v -41.809998 -32.939998 12.000000 
v -41.809998 -27.540004 12.000000 
v -37.999996 -27.540004 5.878679 
v -35.878677 -27.540004 8.000000 
v -37.999996 -27.540004 10.121320 
v -29.909994 -27.540004 12.000000 
v -29.909994 -29.639999 12.000000 
v -29.909994 -29.639999 6.999999 
v -29.909994 -27.540004 -0.000001 
v -34.895988 -29.639999 6.999999 
v -34.895988 -30.839999 6.999999 
v -34.900002 -30.839999 12.000000 
v -34.895988 -30.839999 6.999999 
v -34.900002 -30.839999 6.999999 
v -34.900002 -29.639999 12.000000 
v -40.121315 -32.939998 8.000000 
v -40.121315 -27.540004 8.000000 
v -34.900002 -29.639999 6.999999 
v -34.895988 -29.639999 6.999999 
vn 0.000000 -1.000000 0.000000
vn 0.000000 0.000000 1.000000
vn -1.000000 0.000000 0.000000
vn 0.000000 0.000000 -1.000000
vn 1.000000 -0.000200 0.000000
vn 1.000000 0.000000 0.000000
vn 0.000000 1.000000 0.000000
vn -0.000000 0.707200 0.707000
vn 0.000000 0.707000 0.707200
vn 0.000000 0.707100 -0.707100
vn 0.000000 0.707100 0.707100
vn 0.000000 0.705600 0.708600
vn 0.000000 -0.707100 -0.707100
vn 0.000000 -0.707000 0.707200
vn 0.000000 -0.706800 0.707400
vn 0.000000 -0.705600 0.708600
vn -0.000000 -0.707200 0.707000
vn -0.707400 0.000000 0.706800
vn -0.707100 0.000000 -0.707100
vn -0.707100 0.000000 0.707100
vn 0.707100 0.000000 0.707100
vn 0.707100 0.000000 -0.707100
vn 1.000000 -0.003200 0.000000
vn 1.000000 -0.000100 0.000000
vn -1.000000 0.000200 0.000000
vn 1.000000 0.005000 0.000000
vn 1.000000 0.000100 0.000000
vn 0.000000 0.707300 0.706900
vn 0.000000 0.707800 0.706400
vn 0.000000 -0.707100 0.707100
vn 1.000000 0.000200 0.000000
vn 1.000000 0.000600 0.000000
vn -1.000000 -0.000500 0.000000
vn -0.000000 -0.707400 0.706800
vn -0.707500 0.000000 0.706700
s off
f 3//1 7//1 8//1
f 9//1 10//1 5//1
f 11//2 12//2 2//2
f 14//3 4//3 3//3
f 4//4 14//4 15//4
f 6//2 16//2 17//2
f 17//5 19//5 20//5
f 25//6 9//6 5//6
f 1//2 9//2 28//2
f 29//4 10//4 8//4
f 16//3 6//3 30//3
f 12//7 28//7 27//7
f 36//7 13//7 37//7
f 36//6 39//6 40//6
f 44//7 47//7 17//7
f 47//8 48//8 19//8
f 19//9 48//9 20//9
f 29//10 21//10 49//10
f 25//11 24//11 31//11
f 24//12 23//12 32//12
f 39//2 50//2 33//2
f 52//3 35//3 37//3
f 35//2 52//2 38//2
f 43//2 53//2 44//2
f 38//1 51//1 50//1
f 49//13 57//13 58//13
f 40//14 59//14 60//14
f 63//1 65//1 53//1
f 44//6 53//6 67//6
f 46//4 45//4 67//4
f 49//6 46//6 66//6
f 56//15 55//15 68//15
f 68//6 64//6 70//6
f 58//4 57//4 70//4
f 71//3 60//3 59//3
f 61//16 42//16 41//16
f 62//2 72//2 69//2
f 68//17 55//17 65//17
f 69//1 72//1 71//1
f 3//1 2//1 73//1
f 73//4 75//4 76//4
f 80//18 81//18 74//18
f 75//4 74//4 13//4
f 85//3 86//3 76//3
f 86//1 87//1 77//1
f 78//7 12//7 34//7
f 90//6 79//6 78//6
f 79//1 93//1 80//1
f 96//3 81//3 80//3
f 99//7 100//7 82//7
f 101//6 83//6 82//6
f 54//1 51//1 83//1
f 74//7 37//7 13//7
f 87//6 103//6 84//6
f 103//7 85//7 75//7
f 86//4 85//4 103//4
f 102//2 104//2 89//2
f 90//7 89//7 107//7
f 95//2 106//2 96//2
f 95//1 110//1 92//1
f 98//19 93//19 92//19
f 97//20 94//20 93//20
f 81//7 96//7 111//7
f 112//1 104//1 109//1
f 83//1 104//1 102//1
f 34//2 33//2 50//2
f 106//6 108//6 112//6
f 107//2 105//2 104//2
f 112//2 108//2 107//2
f 94//21 97//21 111//21
f 110//22 111//22 99//22
f 8//7 1//7 2//7
f 2//1 3//1 8//1
f 4//1 5//1 7//1
f 7//1 3//1 4//1
f 5//1 6//1 7//1
f 9//1 1//1 8//1
f 6//1 5//1 10//1
f 9//1 8//1 10//1
f 1//3 11//3 2//3
f 13//3 14//3 3//3
f 5//4 4//4 15//4
f 7//2 6//2 17//2
f 21//6 8//6 20//6
f 7//6 17//6 20//6
f 18//6 19//6 17//6
f 20//6 8//6 7//6
f 5//6 22//6 24//6
f 25//6 26//6 27//6
f 22//23 23//23 24//23
f 25//6 27//6 9//6
f 5//24 24//24 25//24
f 28//6 9//6 27//6
f 11//2 1//2 28//2
f 21//4 29//4 8//4
f 10//3 29//3 30//3
f 31//3 32//3 16//3
f 10//3 30//3 6//3
f 16//25 30//25 31//25
f 27//7 33//7 34//7
f 34//7 12//7 27//7
f 11//7 28//7 12//7
f 37//7 35//7 36//7
f 36//7 15//7 13//7
f 14//7 13//7 15//7
f 43//6 22//6 5//6
f 15//6 36//6 40//6
f 43//6 5//6 15//6
f 41//26 42//26 43//26
f 27//6 26//6 39//6
f 40//27 41//27 15//27
f 36//6 38//6 39//6
f 41//6 43//6 15//6
f 39//6 26//6 40//6
f 32//7 23//7 16//7
f 44//7 45//7 47//7
f 16//7 23//7 22//7
f 45//7 46//7 47//7
f 16//7 22//7 44//7
f 47//7 18//7 17//7
f 17//7 16//7 44//7
f 18//8 47//8 19//8
f 49//10 26//10 29//10
f 25//10 30//10 29//10
f 21//10 20//10 48//10
f 26//10 25//10 29//10
f 21//10 48//10 49//10
f 30//28 25//28 31//28
f 31//29 24//29 32//29
f 27//2 39//2 33//2
f 51//2 52//2 37//2
f 36//2 35//2 38//2
f 22//2 43//2 44//2
f 50//1 39//1 38//1
f 38//1 52//1 51//1
f 51//7 54//7 50//7
f 59//13 40//13 58//13
f 26//13 49//13 58//13
f 55//13 56//13 57//13
f 58//13 40//13 26//13
f 49//13 55//13 57//13
f 41//30 40//30 60//30
f 43//1 42//1 62//1
f 66//1 67//1 65//1
f 42//1 61//1 62//1
f 65//1 67//1 53//1
f 53//1 43//1 62//1
f 63//1 64//1 65//1
f 53//1 62//1 63//1
f 45//6 44//6 67//6
f 66//4 46//4 67//4
f 48//6 47//6 46//6
f 66//6 65//6 55//6
f 49//31 48//31 46//31
f 66//5 55//5 49//5
f 70//6 57//6 56//6
f 56//32 68//32 70//32
f 64//6 63//6 69//6
f 69//6 70//6 64//6
f 71//4 58//4 70//4
f 71//3 72//3 61//3
f 59//3 58//3 71//3
f 61//33 60//33 71//33
f 72//3 62//3 61//3
f 60//34 61//34 41//34
f 63//2 62//2 69//2
f 64//30 68//30 65//30
f 70//1 69//1 71//1
f 77//4 3//4 76//4
f 73//4 74//4 75//4
f 76//4 3//4 73//4
f 2//35 12//35 79//35
f 83//35 51//35 82//35
f 12//35 78//35 79//35
f 82//35 51//35 37//35
f 73//18 2//18 80//18
f 82//18 37//18 81//18
f 2//18 79//18 80//18
f 81//18 37//18 74//18
f 74//18 73//18 80//18
f 13//4 3//4 77//4
f 84//4 75//4 13//4
f 13//4 77//4 84//4
f 75//3 85//3 76//3
f 76//1 86//1 77//1
f 88//7 78//7 34//7
f 88//2 89//2 90//2
f 90//6 91//6 79//6
f 78//2 88//2 90//2
f 79//1 92//1 93//1
f 94//1 80//1 93//1
f 95//3 96//3 80//3
f 82//7 81//7 98//7
f 99//7 96//7 100//7
f 81//7 97//7 98//7
f 98//7 99//7 82//7
f 100//6 101//6 82//6
f 102//1 54//1 83//1
f 77//6 87//6 84//6
f 84//7 103//7 75//7
f 87//4 86//4 103//4
f 34//2 54//2 102//2
f 89//2 88//2 34//2
f 104//2 105//2 89//2
f 34//2 102//2 89//2
f 108//7 106//7 107//7
f 89//2 105//2 107//2
f 107//7 106//7 90//7
f 101//2 100//2 109//2
f 95//2 91//2 106//2
f 109//2 100//2 96//2
f 91//2 90//2 106//2
f 109//2 96//2 106//2
f 92//1 79//1 91//1
f 80//1 94//1 110//1
f 92//1 91//1 95//1
f 95//1 80//1 110//1
f 99//19 98//19 92//19
f 98//20 97//20 93//20
f 96//7 99//7 111//7
f 111//7 97//7 81//7
f 101//1 109//1 83//1
f 112//2 113//2 104//2
f 104//1 83//1 109//1
f 54//6 34//6 50//6
f 109//6 106//6 112//6
f 113//2 107//2 104//2
f 113//2 112//2 107//2
f 110//21 94//21 111//21
f 92//22 110//22 99//22